<mxfile host="app.diagrams.net" modified="2021-03-14T09:53:16.247Z" agent="5.0 (X11; Linux x86_64) AppleWebKit/537.36 (KHTML, like Gecko) Chrome/89.0.4389.82 Safari/537.36" etag="26TUW0OkoPk-Rt3xQGbj" version="14.4.4" type="github">
  <diagram id="6p4-IqCsJhOZY1I1vf0X" name="第 1 页">
    <mxGraphModel dx="1422" dy="804" grid="1" gridSize="10" guides="1" tooltips="1" connect="1" arrows="1" fold="1" page="1" pageScale="1" pageWidth="827" pageHeight="1169" math="0" shadow="0">
      <root>
        <mxCell id="0" />
        <mxCell id="1" parent="0" />
        <mxCell id="Spqla_Tus_LLToc4hB3c-1" value="hz_fd_monitor_r620_3_for_sdwan" style="image;html=1;image=img/lib/clip_art/computers/Server_128x128.png" vertex="1" parent="1">
          <mxGeometry x="270" y="280" width="120" height="150" as="geometry" />
        </mxCell>
        <mxCell id="Spqla_Tus_LLToc4hB3c-2" value="" style="image;html=1;image=img/lib/clip_art/networking/Router_Icon_128x128.png" vertex="1" parent="1">
          <mxGeometry x="290" y="80" width="80" height="80" as="geometry" />
        </mxCell>
        <mxCell id="Spqla_Tus_LLToc4hB3c-3" value="" style="image;html=1;image=img/lib/clip_art/networking/Router_Icon_128x128.png" vertex="1" parent="1">
          <mxGeometry x="610" y="310" width="80" height="80" as="geometry" />
        </mxCell>
        <mxCell id="Spqla_Tus_LLToc4hB3c-4" value="" style="endArrow=none;html=1;entryX=0.5;entryY=1;entryDx=0;entryDy=0;" edge="1" parent="1" source="Spqla_Tus_LLToc4hB3c-1" target="Spqla_Tus_LLToc4hB3c-2">
          <mxGeometry width="50" height="50" relative="1" as="geometry">
            <mxPoint x="170" y="360" as="sourcePoint" />
            <mxPoint x="220" y="310" as="targetPoint" />
          </mxGeometry>
        </mxCell>
        <mxCell id="Spqla_Tus_LLToc4hB3c-6" value="em1" style="edgeLabel;html=1;align=center;verticalAlign=middle;resizable=0;points=[];" vertex="1" connectable="0" parent="Spqla_Tus_LLToc4hB3c-4">
          <mxGeometry x="-0.6667" y="2" relative="1" as="geometry">
            <mxPoint as="offset" />
          </mxGeometry>
        </mxCell>
        <mxCell id="Spqla_Tus_LLToc4hB3c-7" value="G0/0/3" style="edgeLabel;html=1;align=center;verticalAlign=middle;resizable=0;points=[];" vertex="1" connectable="0" parent="Spqla_Tus_LLToc4hB3c-4">
          <mxGeometry x="0.7833" y="2" relative="1" as="geometry">
            <mxPoint as="offset" />
          </mxGeometry>
        </mxCell>
        <mxCell id="Spqla_Tus_LLToc4hB3c-5" value="" style="endArrow=none;html=1;exitX=1.008;exitY=0.393;exitDx=0;exitDy=0;entryX=-0.037;entryY=0.388;entryDx=0;entryDy=0;exitPerimeter=0;entryPerimeter=0;" edge="1" parent="1" source="Spqla_Tus_LLToc4hB3c-1" target="Spqla_Tus_LLToc4hB3c-3">
          <mxGeometry width="50" height="50" relative="1" as="geometry">
            <mxPoint x="390" y="440" as="sourcePoint" />
            <mxPoint x="440" y="390" as="targetPoint" />
          </mxGeometry>
        </mxCell>
        <mxCell id="Spqla_Tus_LLToc4hB3c-8" value="em2" style="edgeLabel;html=1;align=center;verticalAlign=middle;resizable=0;points=[];" vertex="1" connectable="0" parent="Spqla_Tus_LLToc4hB3c-5">
          <mxGeometry x="-0.7909" relative="1" as="geometry">
            <mxPoint as="offset" />
          </mxGeometry>
        </mxCell>
        <mxCell id="Spqla_Tus_LLToc4hB3c-11" value="XG0/0/21" style="edgeLabel;html=1;align=center;verticalAlign=middle;resizable=0;points=[];" vertex="1" connectable="0" parent="Spqla_Tus_LLToc4hB3c-5">
          <mxGeometry x="0.8051" y="2" relative="1" as="geometry">
            <mxPoint as="offset" />
          </mxGeometry>
        </mxCell>
        <mxCell id="Spqla_Tus_LLToc4hB3c-19" value="业务口" style="edgeLabel;html=1;align=center;verticalAlign=middle;resizable=0;points=[];" vertex="1" connectable="0" parent="Spqla_Tus_LLToc4hB3c-5">
          <mxGeometry x="-0.1017" y="-1" relative="1" as="geometry">
            <mxPoint as="offset" />
          </mxGeometry>
        </mxCell>
        <mxCell id="Spqla_Tus_LLToc4hB3c-9" value="" style="endArrow=none;html=1;exitX=1;exitY=0.6;exitDx=0;exitDy=0;exitPerimeter=0;entryX=0;entryY=0.75;entryDx=0;entryDy=0;" edge="1" parent="1" source="Spqla_Tus_LLToc4hB3c-1" target="Spqla_Tus_LLToc4hB3c-3">
          <mxGeometry width="50" height="50" relative="1" as="geometry">
            <mxPoint x="480" y="490" as="sourcePoint" />
            <mxPoint x="530" y="440" as="targetPoint" />
          </mxGeometry>
        </mxCell>
        <mxCell id="Spqla_Tus_LLToc4hB3c-10" value="p2p1" style="edgeLabel;html=1;align=center;verticalAlign=middle;resizable=0;points=[];" vertex="1" connectable="0" parent="Spqla_Tus_LLToc4hB3c-9">
          <mxGeometry x="-0.8364" y="1" relative="1" as="geometry">
            <mxPoint as="offset" />
          </mxGeometry>
        </mxCell>
        <mxCell id="Spqla_Tus_LLToc4hB3c-12" value="xg0/0/48" style="edgeLabel;html=1;align=center;verticalAlign=middle;resizable=0;points=[];" vertex="1" connectable="0" parent="Spqla_Tus_LLToc4hB3c-9">
          <mxGeometry x="0.7818" y="-3" relative="1" as="geometry">
            <mxPoint as="offset" />
          </mxGeometry>
        </mxCell>
        <mxCell id="Spqla_Tus_LLToc4hB3c-15" value="HZ-FD-5700" style="text;html=1;align=center;verticalAlign=middle;resizable=0;points=[];autosize=1;" vertex="1" parent="1">
          <mxGeometry x="290" y="70" width="80" height="20" as="geometry" />
        </mxCell>
        <mxCell id="Spqla_Tus_LLToc4hB3c-16" value="HZ_FD_PE_6720_2" style="text;html=1;align=center;verticalAlign=middle;resizable=0;points=[];autosize=1;" vertex="1" parent="1">
          <mxGeometry x="610" y="380" width="120" height="20" as="geometry" />
        </mxCell>
        <mxCell id="Spqla_Tus_LLToc4hB3c-18" value="vlan481配置公网地址：115.236.20.181" style="text;html=1;align=center;verticalAlign=middle;resizable=0;points=[];autosize=1;" vertex="1" parent="1">
          <mxGeometry x="370" y="380" width="230" height="20" as="geometry" />
        </mxCell>
      </root>
    </mxGraphModel>
  </diagram>
</mxfile>
